<?xml version="1.0" standalone="no"?>
<!DOCTYPE svg PUBLIC "-//W3C//DTD SVG 20010904//EN"
 "http://www.w3.org/TR/2001/REC-SVG-20010904/DTD/svg10.dtd">
<svg version="1.0" xmlns="http://www.w3.org/2000/svg"
 width="700.000000pt" height="700.000000pt" viewBox="0 0 700.000000 700.000000"
 preserveAspectRatio="xMidYMid meet">
<metadata>
Created by potrace 1.14, written by Peter Selinger 2001-2017
</metadata>
<g transform="translate(0.000000,700.000000) scale(0.100000,-0.100000)"
fill="#000000" stroke="none">
<path d="M2333 6855 l0 -145 438 0 438 0 3 -147 3 -147 125 -1 c69 0 133 1
143 3 15 4 17 19 17 148 l0 144 -145 0 -145 0 0 145 0 145 -439 0 -438 0 0
-145z"/>
<path d="M3790 6566 c0 -106 3 -145 13 -148 10 -3 550 -3 568 1 4 1 4 255 0
284 0 4 -131 7 -291 7 l-290 0 0 -144z"/>
<path d="M3498 6271 l-3 -146 -581 0 -581 0 -1 -135 c0 -74 -1 -140 -1 -146
-1 -7 -131 -10 -436 -10 l-435 1 0 -35 c-1 -19 -2 -84 -3 -145 l-2 -110 -284
-2 c-156 -1 -286 -5 -290 -9 -3 -3 -6 -67 -6 -142 l0 -137 -146 -3 -146 -3 -1
-272 c0 -149 -1 -281 -1 -292 -1 -19 -8 -20 -143 -20 l-143 0 -3 -437 -2 -438
147 0 148 0 -1 -290 -1 -290 292 0 292 0 0 -145 c0 -96 -4 -145 -11 -146 -6
-1 -72 -2 -146 -3 l-135 -1 0 -138 c0 -83 4 -141 10 -145 5 -4 66 -7 135 -8
69 -1 130 -2 136 -3 8 -1 11 -86 11 -290 l-1 -289 -139 0 c-76 0 -141 -3 -145
-7 -4 -4 -7 -69 -7 -146 l0 -139 145 0 146 0 0 -145 -1 -145 95 -1 c52 0 119
0 148 1 l53 2 -3 -146 c-3 -122 -1 -145 12 -148 8 -2 75 -3 148 -3 l132 1 0
-146 0 -145 290 0 c190 0 290 3 291 10 1 15 1 237 0 261 -1 21 -4 21 -278 22
-153 0 -284 1 -290 1 -10 1 -13 37 -13 146 l0 145 -145 0 -145 0 -1 68 c-2
327 0 1083 4 1089 3 5 132 8 287 8 155 0 284 3 287 8 2 4 5 70 4 145 l0 137
137 0 c75 0 142 3 147 6 6 4 10 65 9 148 l-1 142 146 -3 146 -3 0 -142 c0 -79
-2 -143 -5 -144 -3 0 -68 -2 -145 -2 l-140 -2 0 -145 0 -145 580 0 580 0 5
145 5 145 425 1 c234 1 430 2 435 3 7 1 10 50 10 134 -1 72 1 138 3 145 3 9
41 12 146 12 l142 0 0 -145 0 -145 -25 -1 c-14 0 -80 -2 -146 -2 l-119 -2 -1
-145 0 -145 438 0 437 0 0 145 0 146 145 0 145 0 0 -140 c2 -474 -1 -1310 -4
-1314 -3 -2 -68 -3 -145 -3 l-142 2 3 -148 3 -147 143 0 142 -1 1 110 c1 61 0
127 -1 147 l-1 37 68 0 c37 0 104 0 148 0 l80 1 0 142 0 143 145 5 145 5 0
137 c0 75 -3 140 -7 144 -4 4 -70 7 -146 6 l-138 -1 0 292 1 292 138 0 c84 0
141 -3 145 -10 4 -5 7 -134 8 -285 1 -151 2 -278 3 -282 0 -3 65 -6 144 -6
l143 0 0 291 -1 292 -145 0 -145 0 0 145 0 145 -130 1 c-71 1 -137 2 -145 3
-13 1 -16 23 -16 146 l-1 145 292 0 291 0 0 288 0 287 147 3 147 3 0 438 0
438 -127 0 c-71 1 -137 2 -148 2 -20 1 -20 8 -19 291 l0 289 -145 3 -146 3 0
143 1 142 -26 0 c-14 1 -145 1 -291 1 l-266 0 -1 140 c-1 77 -3 143 -6 147 -2
4 -198 7 -435 6 -430 -1 -431 -1 -432 20 -1 12 -1 68 -1 126 1 58 -1 114 -3
125 -4 20 -11 20 -437 20 l-433 0 -3 146 -3 146 -144 1 -144 0 -3 -147z"/>
<path d="M586 2620 c-2 -3 -3 -133 -2 -290 l1 -285 145 0 145 0 0 290 0 291
-143 0 c-79 -1 -145 -3 -146 -6z"/>
<path d="M2645 2332 c-20 -3 -21 -9 -20 -145 l0 -142 293 -2 292 -1 0 144 c0
79 -3 144 -7 145 -20 3 -541 4 -558 1z"/>
<path d="M3504 2331 c-2 -2 -4 -68 -4 -147 l0 -142 290 0 c160 -1 290 2 291 6
1 4 2 69 3 145 1 131 0 137 -19 138 -69 3 -557 3 -561 0z"/>
<path d="M3212 1313 l3 -147 288 -1 287 0 0 148 0 147 -290 0 -291 0 3 -147z"/>
<path d="M4669 1161 c0 -3 -2 -67 -3 -141 -2 -74 -4 -137 -5 -140 0 -3 -130
-5 -288 -5 l-288 0 -1 -142 c-1 -123 1 -143 15 -147 9 -2 140 -3 291 -3 l275
2 2 125 c1 69 2 134 2 145 1 20 7 20 291 20 l290 0 0 146 0 146 -290 0 c-159
0 -290 -3 -291 -6z"/>
<path d="M2335 855 c-2 -11 -3 -76 -2 -145 l2 -125 290 0 290 0 0 145 0 145
-288 0 c-280 0 -288 0 -292 -20z"/>
<path d="M2927 578 c-10 -6 -18 -247 -9 -276 3 -9 129 -12 583 -12 318 0 579
3 580 8 6 46 2 275 -5 280 -14 8 -1136 8 -1149 0z"/>
</g>
</svg>
